<svg xmlns="http://www.w3.org/2000/svg" viewBox="-23.68 -5.65 321.89 104.70" width="321.88578125000004" height="104.696875" role="img" aria-label="CompAI"><title>CompAI v1.1 diurno en curvas</title><path fill="#1A1D1B" d="M33.340 37.547L25.766 38.914Q25.383 36.645 24.029 35.496Q22.676 34.348 20.516 34.348Q17.645 34.348 15.936 36.330Q14.227 38.313 14.227 42.961Q14.227 48.129 15.963 50.262Q17.699 52.395 20.625 52.395Q22.813 52.395 24.207 51.150Q25.602 49.906 26.176 46.871L33.723 48.156Q32.547 53.352 29.211 56.004Q25.875 58.656 20.270 58.656Q13.898 58.656 10.111 54.637Q6.324 50.617 6.324 43.508Q6.324 36.316 10.125 32.311Q13.926 28.305 20.406 28.305Q25.711 28.305 28.842 30.588Q31.973 32.871 33.340 37.547 M36.187 43.070Q36.187 39.242 38.073 35.660Q39.960 32.078 43.419 30.191Q46.878 28.305 51.144 28.305Q57.734 28.305 61.945 32.584Q66.155 36.863 66.155 43.398Q66.155 49.988 61.904 54.322Q57.652 58.656 51.198 58.656Q47.206 58.656 43.583 56.852Q39.960 55.047 38.073 51.561Q36.187 48.074 36.187 43.070M44.062 43.480Q44.062 47.801 46.112 50.098Q48.163 52.395 51.171 52.395Q54.179 52.395 56.216 50.098Q58.253 47.801 58.253 43.426Q58.253 39.160 56.216 36.863Q54.179 34.566 51.171 34.566Q48.163 34.566 46.112 36.863Q44.062 39.160 44.062 43.480 M70.397 58L70.397 28.961L77.479 28.961L77.479 32.926Q81.280 28.305 86.530 28.305Q89.319 28.305 91.370 29.453Q93.420 30.602 94.733 32.926Q96.647 30.602 98.862 29.453Q101.077 28.305 103.592 28.305Q106.791 28.305 109.006 29.604Q111.221 30.902 112.315 33.418Q113.108 35.277 113.108 39.434L113.108 58L105.424 58L105.424 41.402Q105.424 37.082 104.631 35.824Q103.565 34.184 101.350 34.184Q99.737 34.184 98.315 35.168Q96.893 36.152 96.264 38.053Q95.635 39.953 95.635 44.055L95.635 58L87.952 58L87.952 42.086Q87.952 37.848 87.541 36.617Q87.131 35.387 86.270 34.785Q85.409 34.184 83.932 34.184Q82.155 34.184 80.733 35.141Q79.311 36.098 78.696 37.902Q78.080 39.707 78.080 43.891L78.080 58 M119.345 69.047L119.345 28.961L126.509 28.961L126.509 33.227Q127.904 31.039 130.283 29.672Q132.662 28.305 135.560 28.305Q140.619 28.305 144.146 32.270Q147.673 36.234 147.673 43.316Q147.673 50.590 144.119 54.623Q140.564 58.656 135.505 58.656Q133.099 58.656 131.144 57.699Q129.189 56.742 127.029 54.418L127.029 69.047L119.345 69.047M126.947 42.988Q126.947 47.883 128.888 50.221Q130.830 52.559 133.619 52.559Q136.298 52.559 138.076 50.412Q139.853 48.266 139.853 43.371Q139.853 38.805 138.021 36.590Q136.189 34.375 133.482 34.375Q130.666 34.375 128.806 36.549Q126.947 38.723 126.947 42.988"/><path fill="#A85F1B" d="M176.205 52.695L174.937 49.460L162.049 49.460L160.755 52.695L162.049 52.695Q163.964 52.695 164.779 53.432Q165.595 54.170 165.595 55.360Q165.595 56.525 164.779 57.262Q163.964 58 162.049 58L154.907 58Q152.992 58 152.176 57.262Q151.361 56.525 151.361 55.334Q151.361 54.144 152.215 53.394Q153.069 52.643 155.036 52.695L163.369 31.940L159.901 31.940Q157.986 31.940 157.171 31.202Q156.356 30.465 156.356 29.274Q156.356 28.084 157.171 27.346Q157.986 26.609 159.901 26.609L171.366 26.635L181.924 52.695Q183.787 52.695 184.383 53.109Q185.573 53.963 185.573 55.360Q185.573 56.525 184.771 57.262Q183.969 58 182.054 58L174.911 58Q172.996 58 172.181 57.262Q171.366 56.525 171.366 55.334Q171.366 54.170 172.181 53.432Q172.996 52.695 174.911 52.695L176.205 52.695M164.171 44.155L172.737 44.155L168.467 33.648 M209.869 31.940L204.512 31.940L204.512 52.695L209.869 52.695Q211.784 52.695 212.599 53.432Q213.414 54.170 213.414 55.360Q213.414 56.525 212.599 57.262Q211.784 58 209.869 58L193.850 58Q191.935 58 191.120 57.262Q190.304 56.525 190.304 55.334Q190.304 54.170 191.120 53.432Q191.935 52.695 193.850 52.695L199.207 52.695L199.207 31.940L193.850 31.940Q191.935 31.940 191.120 31.202Q190.304 30.465 190.304 29.274Q190.304 28.084 191.120 27.346Q191.935 26.609 193.850 26.609L209.869 26.635Q211.784 26.635 212.599 27.359Q213.414 28.084 213.414 29.274Q213.414 30.465 212.599 31.202Q211.784 31.940 209.869 31.940"/><g transform="translate(235.06 20) scale(1.5)" fill="none" stroke="#1F7A52" stroke-width="2.2" stroke-linecap="round" stroke-linejoin="round"><path d="M1 8.5 L5 12.5 L12 4"/><path d="M10 8.5 L14 12.5 L21 4"/></g></svg>